<svg id="Laag_1" data-name="Laag 1" xmlns="http://www.w3.org/2000/svg" viewBox="0 0 1920 1080"><defs><style>.cls-1{opacity:0.6;}.cls-2{fill:#efd275;}.cls-3{fill:#39b54a;}.cls-4{fill:#666;}.cls-5{fill:#768187;}.cls-6{fill:#f7e904;}.cls-7{fill:#004787;}.cls-8{fill:#554b4c;}.cls-9{fill:#fff;}.cls-10{fill:none;}</style></defs><title>achtergrondv2</title><g class="cls-1"><rect class="cls-2" x="0.5" y="0.5" width="1919" height="1079"/><path d="M1919,1V1079H1V1H1919m1-1H0V1080H1920V0Z"/></g><path class="cls-3" d="M1920,953c-378.4-61.9-599.2-51.3-734-26-22.1,4.2-64.3,12.9-126,20-146.5,16.8-228.2,4.2-421,0-34.9-.8-97.2-.5-222,0-160.9.6-301.7,3.1-417,6v127H1920Z"/><path class="cls-4" d="M1925.44,991.07q-866.44-.6-1733-1.1c1.92-.7,3.84-1.5,5.75-2.2q860.68.6,1721.37,1.3C1921.48,989.77,1923.4,990.48,1925.44,991.07Z"/><path class="cls-4" d="M2041.49,1032q-982.61,1.2-1965.1,2.3c1.92-.7,3.84-1.5,5.75-2.2l1953.59-2.1C2037.53,1030.57,2039.57,1031.27,2041.49,1032Z"/><path class="cls-4" d="M144,1042.88c-12.59,0-25.06,0-37.65.1q86.5-34.8,173.12-69.5h30.81Q227.21,1008.27,144,1042.88Z"/><path class="cls-4" d="M817.78,1042c-12.59,0-25.06,0-37.65.1,16.9-22.6,33.81-45.1,50.71-67.7h30.81C846.91,996.87,832.41,1019.37,817.78,1042Z"/><path class="cls-4" d="M733.5,1042.07c-12.59,0-25.06,0-37.65.1l65.94-67.9H792.6C772.94,996.77,753.28,1019.48,733.5,1042.07Z"/><path class="cls-4" d="M649.34,1042.17c-12.59,0-25.06,0-37.65.1q40.64-34.05,81.28-68.2h30.81Z"/><path class="cls-4" d="M565.06,1042.27c-12.59,0-25.06,0-37.65.1q48.38-34.2,96.63-68.4h30.81Q610.07,1008.18,565.06,1042.27Z"/><path class="cls-4" d="M480.89,1042.38c-12.59,0-25.06,0-37.65.1q55.93-34.35,111.86-68.6h30.81Q533.41,1008.22,480.89,1042.38Z"/><path class="cls-4" d="M396.73,1042.57c-12.59,0-25.06,0-37.65.1q63.66-34.35,127.2-68.8H517.1Q456.86,1008.07,396.73,1042.57Z"/><path class="cls-4" d="M312.45,1042.67c-12.59,0-25.06,0-37.65.1q71.21-34.5,142.55-69.1h30.81Q380.37,1008.17,312.45,1042.67Z"/><path class="cls-4" d="M228.29,1042.77c-12.59,0-25.06,0-37.65.1q78.95-34.65,157.77-69.3h30.81Q303.7,1008.22,228.29,1042.77Z"/><path class="cls-4" d="M901.94,1041.77c-12.59,0-25.06,0-37.65.1,11.75-22.5,23.62-45,35.37-67.5h30.81C921,996.87,911.41,1019.37,901.94,1041.77Z"/><path class="cls-4" d="M1575.6,1040.77c-12.59,0-25.06,0-37.65.1l-87-65.7h30.81Q1528.66,1008,1575.6,1040.77Z"/><path class="cls-4" d="M1491.44,1041c-12.59,0-25.06,0-37.65.1-24-22-47.84-44-71.81-65.9h30.81Q1452.17,1008,1491.44,1041Z"/><path class="cls-4" d="M1407.28,1041.07c-12.59,0-25.06,0-37.65.1Q1341.4,1008,1313.16,975H1344C1365,997.07,1386.18,1019.07,1407.28,1041.07Z"/><path class="cls-4" d="M1323,1041.17c-12.59,0-25.06,0-37.65.1-13.67-22.1-27.45-44.3-41.12-66.4H1275C1291,997,1307,1019.07,1323,1041.17Z"/><path class="cls-4" d="M1238.83,1041.27c-12.59,0-25.06,0-37.65.1l-25.9-66.6h30.81Q1222.47,1008.08,1238.83,1041.27Z"/><path class="cls-4" d="M1154.55,1041.48c-12.59,0-25.06,0-37.65.1-3.48-22.3-7.07-44.5-10.55-66.8h30.81Q1146,1008.08,1154.55,1041.48Z"/><path class="cls-4" d="M1070.39,1041.57c-12.59,0-25.06,0-37.65.1,1.56-22.3,3.12-44.7,4.8-67h30.81C1068.95,996.87,1069.67,1019.27,1070.39,1041.57Z"/><path class="cls-4" d="M986.23,1041.67c-12.59,0-25.06,0-37.65.1q10.07-33.6,20-67.3h30.81Q992.76,1008.07,986.23,1041.67Z"/><path class="cls-4" d="M1659.76,1040.67c-12.59,0-25.06,0-37.65.1q-51.25-32.7-102.39-65.5h30.81Q1605.21,1008,1659.76,1040.67Z"/><path class="cls-4" d="M1996.65,1040.17c-12.59,0-25.06,0-37.65.1q-81.82-32.25-163.65-64.6h30.81Q1911.59,1007.92,1996.65,1040.17Z"/><path class="cls-4" d="M1912.49,1040.27c-12.59,0-25.06,0-37.65.1q-74.09-32.4-148.3-64.8h30.81Q1834.86,1008,1912.49,1040.27Z"/><path class="cls-4" d="M1828.21,1040.48c-12.59,0-25.06,0-37.65.1q-66.54-32.55-133-65h30.81Q1758.37,1008,1828.21,1040.48Z"/><path class="cls-4" d="M1744,1040.57c-12.59,0-25.06,0-37.65.1q-58.81-32.7-117.61-65.3h30.81Q1681.82,1007.92,1744,1040.57Z"/><path class="cls-5" d="M1923.71,776.6q-297.15-1.35-594.4-2.6l-12.8,12.8c-34.9.9-69.7,1.7-104.6,2.6a57,57,0,0,0-38.3,17.9c-32.1,33.3-47.2,76.5-47.2,76.5a235.06,235.06,0,0,0-10.2,40.8c1.3,6.4,2.1,11.7,2.6,15.3,1.6,12.2,4.1,30.3,2.6,53.6-.4,5.4-.6,6.1,0,7.7,6,16,53.6,13.2,82.9,2.6,7.9-2.9,15-6.5,21.7-12.8a58.24,58.24,0,0,0,14-20.4h167.1c6.4,6,12.8,11.9,19.1,17.9h494.9Q1922.46,882.3,1923.71,776.6Z"/><path class="cls-6" d="M1922.41,804.6H1430c-12.8,7.7-25.5,15.3-38.3,23q-75.3-1.35-150.5-2.6a155.56,155.56,0,0,0-28.1,15.3c-20.4,14.1-72.2,94.1-84.2,89.3a37.36,37.36,0,0,1-7.7-5.1,48.15,48.15,0,0,1-5.1-5.1,28.52,28.52,0,0,0-2.6,12.8,26.64,26.64,0,0,0,2.6,10.2c4.2,10.9,4.6,21.1,5.1,35.7.2,6.7,0,14.5,0,15.3-.1,2.8-.2,5.1-.3,6.7a51.93,51.93,0,0,0,5.4,3.5c31.4,18.2,69.7,3.2,77.8,0,12.9-5,18.9-10.1,21.7-12.8a58.24,58.24,0,0,0,14-20.4h167.1c6.4,6,12.8,11.9,19.1,17.9h494.9Q1922,896.5,1922.41,804.6Z"/><polygon class="cls-7" points="1279.51 916.9 1403.91 916.9 1483.01 863.3 1922.41 863.3 1922.41 817.4 1468.91 817.4 1389.81 870.9 1279.51 870.9 1279.51 916.9"/><rect class="cls-7" x="1468.3" y="904.11" width="454.1" height="48.5"/><path class="cls-7" d="M1242.21,901.3c1.1-1.1,2.3-2.2,3.4-3.3l1.1-1.1H1233a2.7,2.7,0,0,0-2.2,1c-2.3,2.4-4.7,4.8-7.2,7a23.16,23.16,0,0,1-3.8,2.1h-17c-.1-.1-.2-.3-.3-.4l-12-11.7c-.1-.1-.3-.2-.4-.3v-.4c.2-.1.3-.2.5-.3,3.9-3.8,7.8-7.5,11.7-11.3.2-.2.4-.5.6-.7h7.6c-2.4,2.3-4.8,4.6-7.1,7-1,1-2,1.9-3.2,3,.5,0,.8.1,1.1.1h12.3a3.32,3.32,0,0,0,2.5-1c1.9-1.8,3.8-3.6,5.6-5.5,1.6-1.6,3.2-3.1,5.4-3.6h16.8c1.5,1.4,2.9,2.9,4.4,4.3,2.6,2.5,5.3,5.1,8,7.6a2.09,2.09,0,0,0,.6.4v.4a1,1,0,0,0-.5.4c-4,3.9-8,7.7-12,11.6a1,1,0,0,0-.4.5h-7.4C1238.41,905.1,1240.31,903.2,1242.21,901.3Zm-.3-14.3a1.08,1.08,0,0,0-.8-.2h-12.4a3.26,3.26,0,0,0-1.8.8c-2.5,2.3-4.9,4.6-7.3,7a7.87,7.87,0,0,1-5.6,2.3h-13.8c.6.6.9,1,1.3,1.4,1.2,1.2,2.3,2.8,3.8,3.4s3.4.2,5.2.2c2.6,0,5.1.1,7.7,0a3,3,0,0,0,2-.8c2.4-2.2,4.8-4.5,7.2-6.8a7.87,7.87,0,0,1,5.6-2.3h13.8C1245,890.1,1243.51,888.5,1241.91,887Z"/><path class="cls-7" d="M1785.61,891.1c1.1-1.1,2.3-2.2,3.4-3.3l1.1-1.1h-13.7a2.7,2.7,0,0,0-2.2,1c-2.3,2.4-4.7,4.8-7.2,7a23.16,23.16,0,0,1-3.8,2.1h-17c-.1-.1-.2-.3-.3-.4l-12-11.7c-.1-.1-.3-.2-.4-.3V884c.2-.1.3-.2.5-.3,3.9-3.8,7.8-7.5,11.7-11.3.2-.2.4-.5.6-.7h7.6c-2.4,2.3-4.8,4.6-7.1,7-1,1-2,1.9-3.2,3,.5,0,.8.1,1.1.1H1757a3.32,3.32,0,0,0,2.5-1c1.9-1.8,3.8-3.6,5.6-5.5,1.6-1.6,3.2-3.1,5.4-3.6h16.8c1.5,1.4,2.9,2.9,4.4,4.3,2.6,2.5,5.3,5.1,8,7.6a2.09,2.09,0,0,0,.6.4v.4a1,1,0,0,0-.5.4c-4,3.9-8,7.7-12,11.6a1,1,0,0,0-.4.5H1780C1781.81,894.9,1783.71,893,1785.61,891.1Zm-.3-14.3a1.08,1.08,0,0,0-.8-.2h-12.4a3.26,3.26,0,0,0-1.8.8c-2.5,2.3-4.9,4.6-7.3,7a7.87,7.87,0,0,1-5.6,2.3h-13.8c.6.6.9,1,1.3,1.4,1.2,1.2,2.3,2.8,3.8,3.4s3.4.2,5.2.2c2.6,0,5.1.1,7.7,0a3,3,0,0,0,2-.8c2.4-2.2,4.8-4.5,7.2-6.8a7.87,7.87,0,0,1,5.6-2.3h13.8C1788.51,879.9,1786.91,878.3,1785.31,876.8Z"/><circle class="cls-8" cx="1384.11" cy="1003.6" r="17.9"/><path d="M1384.11,985.8a17.9,17.9,0,1,1-17.9,17.9,17.88,17.88,0,0,1,17.9-17.9m0-10.2a28.1,28.1,0,1,0,28.1,28.1,28.12,28.12,0,0,0-28.1-28.1Z"/><circle class="cls-8" cx="1259.11" cy="1003.6" r="17.9"/><path d="M1259.11,985.8a17.9,17.9,0,1,1-17.9,17.9,17.88,17.88,0,0,1,17.9-17.9m0-10.2a28.1,28.1,0,1,0,28.1,28.1,28.12,28.12,0,0,0-28.1-28.1Z"/><path class="cls-9" d="M856,202c0-47.5-64.7-86-144.5-86-4.3,0-8.6.1-12.8.3-28.3-33.1-81.8-55.5-143.2-55.5-83.5,0-152.5,41.4-163.1,95.1C339.8,171.6,304,202.5,304,238c0,51.4,74.8,93,167,93a278.2,278.2,0,0,0,74.6-9.8C569.1,334.5,606.3,343,648,343c71.2,0,129-24.8,129-55.5a24,24,0,0,0-1.5-8.4C823.2,265.1,856,235.8,856,202Z"/><path class="cls-10" d="M1556.7,265.5a65,65,0,0,1-7.7.5c-1.8,0-3.7-.1-5.5-.2-.2.1-.3.2-.5.3q7.35.3,14.1,1.2A11.62,11.62,0,0,0,1556.7,265.5Z"/><path class="cls-9" d="M1612.5,194a59.22,59.22,0,0,0-14.7,1.9c-8.7-16.5-27.3-27.9-48.8-27.9-17.5,0-33.1,7.6-42.9,19.3-5.8-21.1-38.8-37.3-78.6-37.3-43.9,0-79.5,19.7-79.5,44,0,6.5,2.6,12.6,7.1,18.2-23.4,8.3-38.1,20.2-38.1,33.3,0,23,44.7,42,102.9,45.1a36,36,0,0,0,68.2,23C1500,320,1518,324,1538,324c26.4,0,49-7,59.2-17.1a59.47,59.47,0,0,0,15.3,2.1,57.5,57.5,0,0,0,0-115Zm-69,71.8a49.64,49.64,0,0,0,5.5.2,65,65,0,0,0,7.7-.5c.2.6.3,1.2.5,1.8-4.5-.6-9.3-1-14.1-1.2C1543.2,266,1543.4,265.9,1543.5,265.8Z"/><path class="cls-9" d="M1023,713c0-14.4-30-26-67-26a153.89,153.89,0,0,0-31.6,3.1c-14.9-16-45.5-27.1-80.9-27.1-50,0-90.5,21.9-90.5,49a13.41,13.41,0,0,0,.1,2H753c-72.9,0-132,13.4-132,30s59.1,30,132,30a537.34,537.34,0,0,0,57.7-3c10.5,18,42.3,31,79.8,31,46.1,0,83.5-19.7,83.5-44,0-6.9-3-13.4-8.4-19.3C998,736.9,1023,726.1,1023,713Z"/></svg>