<?xml version="1.0" encoding="utf-8"?>
<!-- Generator: Adobe Illustrator 21.1.0, SVG Export Plug-In . SVG Version: 6.00 Build 0)  -->
<svg version="1.1" id="Laag_1" xmlns="http://www.w3.org/2000/svg" xmlns:xlink="http://www.w3.org/1999/xlink" x="0px" y="0px"
	 viewBox="0 0 200 200" style="enable-background:new 0 0 200 200;" xml:space="preserve">
<style type="text/css">
	.st0{fill:#29235C;}
	.st1{fill:#FFFFFF;}
</style>
<path class="st0" d="M100.3,176.7c-42.3,0-76.7-34.4-76.7-76.7S58,23.3,100.3,23.3S177,57.7,177,100S142.6,176.7,100.3,176.7z"/>
<path class="st0" d="M100.3,28.5c-39.4,0-71.5,32.1-71.5,71.5s32.1,71.5,71.5,71.5s71.5-32.1,71.5-71.5S139.7,28.5,100.3,28.5z"/>
<g>
	<path class="st1" d="M121,52.8c-6.3,0.1-12.4,0.2-18.7,0.2c-1.5,0.1-5.5,0.7-9.3,4c-4.1,3.5-5.2,8-5.4,9.4
		c-0.2,5.4-0.5,10.9-0.7,16.2c-2.7,0-5.5,0-8.2,0c0,5.8,0,11.6,0,17.4c2.8,0,5.6,0,8.6,0c0,15.3,0,30.7,0,46c6.4,0,12.7,0,19.1,0
		c0-15.8,0-31.5,0-47.3c4.7,0,9.4,0,14.1,0c0-5.2,0-10.3,0-15.5c-4.3,0-8.6,0-12.8,0c0-3.8,0-7.5,0-11.3c0.1-0.3,0.3-0.9,0.9-1.6
		c0.6-0.6,1.3-0.8,1.6-0.9c3.7,0,7.3,0,11.1,0C121,63.9,121,58.4,121,52.8z"/>
	<path class="st0" d="M108.9,148.6H84.5v-46H76V80h8.4c0.1-1.8,0.2-3.6,0.3-5.4c0.1-2.8,0.3-5.5,0.4-8.3V66c0.2-1.1,1.2-6.5,6.3-11
		c4.5-3.9,9.4-4.5,10.8-4.6h0.2c6.1,0,12.1-0.1,18.3-0.2h3v2.7c0,5.4,0,11,0.1,16.5v2.7h-13.2c-0.1,0-0.1,0.1-0.2,0.2
		s-0.1,0.1-0.2,0.2v8.2H123v20.8h-14.1L108.9,148.6L108.9,148.6z M89.8,143.4h13.9V96.1h14.1V85.8H105V71.5l0.1-0.4
		c0.1-0.4,0.5-1.5,1.6-2.6s2.2-1.4,2.6-1.6l0.4-0.1h8.8c0-3.8-0.1-7.6-0.1-11.3c-5.4,0.1-10.6,0.2-16,0.2c-1.1,0.1-4.5,0.6-7.7,3.3
		c-3.5,3.1-4.4,6.9-4.5,7.7c-0.1,2.7-0.2,5.5-0.4,8.2c-0.1,2.6-0.3,5.2-0.4,7.8l-0.1,2.5h-8.1v12.2h8.6V143.4z"/>
</g>
</svg>
