<?xml version="1.0" encoding="utf-8"?>
<!-- Generator: Adobe Illustrator 21.1.0, SVG Export Plug-In . SVG Version: 6.00 Build 0)  -->
<svg version="1.1" id="Laag_1" xmlns="http://www.w3.org/2000/svg" xmlns:xlink="http://www.w3.org/1999/xlink" x="0px" y="0px"
	 viewBox="0 0 200 200" style="enable-background:new 0 0 200 200;" xml:space="preserve">
<style type="text/css">
	.st0{fill:none;stroke:#232955;stroke-width:4;stroke-miterlimit:10;}
</style>
<path class="st0" d="M96.5,68.8c0.7-2.7,1.9-6.5,4.5-10.7c2.3-3.6,4.6-5.9,6.6-7.9c0.8-0.8,5.9-5.6,11.7-8.8
	c6.7-3.6,18.4-7.2,30.7-4.2c22.7,5.6,30.8,29.6,31.3,31.7c3.9,16.2,3.9,32.1-8.2,45.1c-6.3,6.7-13.9,12.4-21.6,17.5
	c-12.5,8.3-25.1,16.5-35.1,27.8c-4.7,5.3-8.9,11-13.4,16.6c-10.2-18.3-26.3-30.5-44-41.2c-6-3.6-11.9-7.5-17.3-11.8
	c-4.8-3.9-11.6-10.6-16-21.1c-1.3-3.2-7.9-19.9-0.4-38.3c1.5-3.6,6-14.2,17.1-21.2c6.9-4.3,13.3-5.5,15.2-5.8
	c3.3-0.5,9.3-1,16.1,0.9c13,3.6,20.2,13.4,22.3,16.5"/>
</svg>
