<?xml version="1.0" encoding="utf-8"?>
<!-- Generator: Adobe Illustrator 21.1.0, SVG Export Plug-In . SVG Version: 6.00 Build 0)  -->
<svg version="1.1" id="Laag_1" xmlns="http://www.w3.org/2000/svg" xmlns:xlink="http://www.w3.org/1999/xlink" x="0px" y="0px"
	 viewBox="0 0 200 200" style="enable-background:new 0 0 200 200;" xml:space="preserve">
<style type="text/css">
	.st0{fill:#29235C;}
</style>
<g>
	<path class="st0" d="M127.9,150.5H72c-12.4,0-22.6-10.1-22.6-22.6V72.1c0-12.4,10.1-22.6,22.6-22.6h55.9
		c12.4,0,22.6,10.1,22.6,22.6v56C150.4,140.4,140.3,150.5,127.9,150.5z M72,54.6c-9.7,0-17.5,7.9-17.5,17.5v56
		c0,9.7,7.9,17.5,17.5,17.5h55.9c9.7,0,17.5-7.9,17.5-17.5v-56c0-9.7-7.9-17.5-17.5-17.5H72z"/>
	<path class="st0" d="M138.2,82.3h-19v-19h19V82.3z M122.5,79h12.3V66.7h-12.3V79z"/>
	<path class="st0" d="M100,118.6c-10,0-18.2-8.1-18.2-18.2s8.1-18.2,18.2-18.2s18.2,8.1,18.2,18.2C118.1,110.4,110,118.6,100,118.6z
		 M100,87.3c-7.3,0-13.1,5.9-13.1,13.1c0,7.3,5.9,13.1,13.1,13.1s13.1-5.9,13.1-13.1C113.1,93.2,107.2,87.3,100,87.3z"/>
	<path class="st0" d="M126.9,140.3H73.5c-7.3,0-13.4-6-13.4-13.4V89.4h27v3.3H63.4V127c0,5.5,4.5,10,10,10h53.4c5.5,0,10-4.5,10-10
		V92.8H113v-3.3h27.2V127C140.3,134.3,134.2,140.3,126.9,140.3z"/>
</g>
<path class="st0" d="M99.3,177.3c-42.3,0-76.7-34.4-76.7-76.7S57,23.9,99.3,23.9S176,58.3,176,100.6S141.6,177.3,99.3,177.3z
	 M99.3,29.1c-39.4,0-71.5,32.1-71.5,71.5s32.1,71.5,71.5,71.5s71.5-32.1,71.5-71.5S138.7,29.1,99.3,29.1z"/>
</svg>
