<?xml version="1.0" encoding="utf-8"?>
<!-- Generator: Adobe Illustrator 21.1.0, SVG Export Plug-In . SVG Version: 6.00 Build 0)  -->
<svg version="1.1" id="Laag_1" xmlns="http://www.w3.org/2000/svg" xmlns:xlink="http://www.w3.org/1999/xlink" x="0px" y="0px"
	 viewBox="0 0 200 200" style="enable-background:new 0 0 200 200;" xml:space="preserve">
<style type="text/css">
	.st0{fill:#233971;}
</style>
<path class="st0" d="M102.7,36.6c15.1,0,27.3,13.9,27.3,31.1c0,17.1-12.3,31.1-27.3,31.1S75.4,84.8,75.4,67.6
	C75.4,50.5,87.6,36.6,102.7,36.6 M102.7,29.7c-18.9,0-34.2,17-34.2,37.9s15.3,37.9,34.2,37.9c18.9,0,34.2-17,34.2-37.9
	S121.6,29.7,102.7,29.7L102.7,29.7z"/>
<g>
	<path class="st0" d="M164.2,170.3L38.1,170l-0.2-3.2c-1-13.6-1.7-31.7,0.5-40.5c0.3-1.4,0.7-2.3,0.9-2.9c1.3-3.2,4.3-8.2,15-14.1
		c6.3-3.4,13.1-6,20.4-7.7l1.5,6.7c-6.6,1.5-12.9,3.9-18.6,7c-8.8,4.8-11,8.4-11.9,10.6c-0.2,0.4-0.4,1-0.6,2
		c-1.4,5.8-1.6,18.2-0.5,35.2l119.8,0.2L164.2,170.3z"/>
	<path class="st0" d="M41.2,170.3l0-6.8l119.8-0.2c1.1-16.9,0.9-29.3-0.5-35.2c-0.2-0.9-0.5-1.6-0.6-2c-0.9-2.3-3.1-5.9-11.9-10.6
		c-5.8-3.1-12-5.5-18.6-7l1.5-6.7c7.2,1.7,14.1,4.2,20.4,7.7c10.7,5.8,13.7,10.8,15,14.1c0.2,0.5,0.6,1.5,0.9,2.9
		c2.2,8.8,1.5,26.8,0.5,40.5l-0.2,3.2L41.2,170.3z"/>
</g>
<path class="st0" d="M44.3,168c40-0.3,80-0.6,120-0.9c3-14.5,1.1-25.7-0.5-32.1c-1.7-6.7-3.2-13-8.7-18.3
	c-9.3-9.2-22.5-8.5-25.9-8.2c-3.7,2.4-13.1,7.6-26.2,7.7c-13.4,0.1-23.1-5.3-26.8-7.7c-5.3,0-19.2,0.9-28.9,11.1
	c-1.6,1.7-2.8,3.4-3.9,5.1c-1.2,4.7-2.2,10.6-2.4,17.3C40.6,152.7,42.4,161.7,44.3,168z"/>
<ellipse class="st0" cx="102.2" cy="67.2" rx="28.5" ry="34.6"/>
</svg>
