<svg id="Laag_1" data-name="Laag 1" xmlns="http://www.w3.org/2000/svg" viewBox="0 0 510.61 284"><defs><style>.cls-1{fill:#f0f0f0;}.cls-2{fill:#222a55;}</style></defs><title>Tekengebied 1</title><path class="cls-1" d="M500.44,153.74c-4.95,5-9.87,10-14.84,15Q447.83,206.53,410,244.3c-1.06,1.06-2.18,2.07-3.29,3.08a7.15,7.15,0,0,1-5.88,1.77,55.08,55.08,0,0,0-5.73-.23q-49.63,0-99.26,0c-4,0-8-.39-12.06-.74-10.61-.93-19.52-5.56-27.14-12.74-17.41-16.41-34-33.7-50.94-50.55-1.5-1.49-2.93-3.06-4.33-4.65-5.15-5.85-11.71-8.11-19.38-8.06-15.86.1-31.72.25-47.58-.08-11.69-.24-23.37-.26-35.06-.28-4.64,0-9.29.25-13.93.4-.52,0-1.2-.15-1.45.48s.26,1,.62,1.42c5.41,5.7,10.73,11.49,16.51,16.82.55.51,1.14,1,1.68,1.51,11.78,11.61,23.48,23.31,35.38,34.79,5.85,5.65,11.51,11.49,17.19,17.3.62.64,1.28,1.24,1.83,1.93s1.48,1.16,1.05,2-1.36.38-2.09.44c-10.18.84-20.35.06-30.53,0-5.54,0-11.08-.07-16.61,0a7.42,7.42,0,0,1-5.83-2.41Q92.65,235.66,81.88,225c-9-8.94-18.1-17.86-27-26.89-11.93-12-24.44-23.5-36.37-35.54-2.5-2.52-4.87-5.18-7.36-7.71-1.21-1.22-1.26-2.28-.05-3.5,1.87-1.9,3.64-3.9,5.53-5.77,28.64-28.2,57-56.7,85.44-85.08,1.16-1.15,2.51-2.11,3.77-3.15H216.56c3.5.36,7,.3,10.53.48,10.31.54,19.08,4.75,26.76,11.37a257.17,257.17,0,0,1,18.49,18.32c6.2,6.55,12.69,12.83,19.09,19.19,6.59,6.55,13.17,13.13,19.47,20,4.4,4.77,9.84,6.75,16.13,6.76,31.5.05,63,0,94.51,0a8.44,8.44,0,0,0,1.23-.05c1-.15,1.34-.63.69-1.52a10.47,10.47,0,0,0-1.12-1.2c-6.48-6.48-12.9-13-19.45-19.42-16-15.63-31.47-31.75-47.39-47.44-1.56-1.54-3.37-2.79-4.83-4.44-.65-.74-.88-1.36,0-2H406.5c4.17,1.77,6.66,5.49,9.68,8.55,2.06,2.08,4,4.27,6.1,6.35C429,79,435.64,85.94,442.59,92.51c11.77,11.13,22.86,22.95,34.58,34.13,6.72,6.42,13.22,13.06,19.88,19.54a11.91,11.91,0,0,1,3.39,4.69Zm-313-19.66a50.28,50.28,0,0,1,24.85,6.77c9.9,5.64,17.61,13.82,25.31,22,13.39,14.15,27.23,27.85,41,41.65,4.37,4.39,9.33,6.85,15.64,6.88,3.49,0,7-.2,10.44-.19,21.87.06,43.75,0,65.62,0,5,0,10-.08,15,0a7.54,7.54,0,0,0,6.63-3,12.58,12.58,0,0,1,1.28-1.32c10.39-10,21.06-19.7,30.85-30.31.89-1,2.66-1.94,2.1-3.2s-2.46-.77-3.79-.77q-16.41-.06-32.81,0c-6.63,0-13.26,0-19.89.1-16.12.34-32.25.74-48.37-.09A54.2,54.2,0,0,1,284,155.87q-13.62-13.92-27.63-27.46c-8.88-8.6-18-17-26.26-26.2-3.93-4.41-8.55-6-14.34-6q-44.5.21-89,0a14.56,14.56,0,0,0-11.28,4.6c-.33.34-.68.67-1,1-9.87,9.64-18.92,20.11-29.3,29.25-.68.6-1.83,1.24-1.41,2.28s1.8.7,2.76.7q25.53,0,51.06,0C154.22,134,170.83,134,187.44,134.08Z"/><path class="cls-2" d="M465.73,174.75c-4.25,4.3-8.47,8.61-12.74,12.88q-32.42,32.44-64.85,64.85c-.91.91-1.87,1.78-2.82,2.65a6.14,6.14,0,0,1-5,1.52,47.28,47.28,0,0,0-4.92-.2h-85.2c-3.47,0-6.91-.33-10.36-.63-9.11-.8-16.76-4.77-23.3-10.94-14.95-14.09-29.15-28.93-43.73-43.39-1.29-1.28-2.51-2.63-3.71-4-4.42-5-10.05-7-16.64-6.92-13.61.09-27.23.21-40.84-.06-10-.2-20.06-.23-30.09-.24-4,0-8,.21-12,.34-.45,0-1-.13-1.25.41s.22.89.53,1.22c4.65,4.89,9.21,9.86,14.17,14.44.47.44,1,.84,1.44,1.29,10.12,10,20.15,20,30.37,29.87,5,4.85,9.88,9.86,14.75,14.85.53.55,1.1,1.07,1.57,1.66s1.27,1,.91,1.74-1.17.33-1.79.38c-8.74.72-17.47.05-26.21,0-4.75,0-9.51-.06-14.26,0a6.37,6.37,0,0,1-5-2.07q-9.07-9.35-18.31-18.53c-7.75-7.68-15.54-15.33-23.22-23.08C73,202.48,62.25,192.65,52,182.31c-2.15-2.17-4.18-4.44-6.32-6.61-1-1-1.08-2,0-3,1.61-1.63,3.12-3.35,4.75-5,24.59-24.2,48.92-48.67,73.34-73,1-1,2.16-1.81,3.24-2.71h95.08c3,.31,6,.26,9,.41,8.85.46,16.37,4.08,23,9.76a220.75,220.75,0,0,1,15.87,15.72c5.32,5.63,10.89,11,16.39,16.48C292,140,297.62,145.65,303,151.51a17.93,17.93,0,0,0,13.84,5.8c27,0,54.08,0,81.12,0a7.25,7.25,0,0,0,1.05,0c.87-.13,1.15-.54.59-1.31a9,9,0,0,0-1-1c-5.56-5.56-11.07-11.17-16.69-16.67-13.71-13.42-27-27.25-40.68-40.72-1.34-1.32-2.89-2.4-4.14-3.81-.56-.63-.75-1.17,0-1.74h47.89c3.58,1.52,5.71,4.71,8.31,7.34,1.77,1.79,3.46,3.67,5.24,5.45,5.8,5.81,11.47,11.77,17.44,17.41,10.11,9.56,19.63,19.7,29.68,29.3,5.77,5.51,11.35,11.21,17.07,16.77a10.22,10.22,0,0,1,2.91,4ZM197,157.88a43.16,43.16,0,0,1,21.33,5.82c8.5,4.84,15.11,11.86,21.72,18.84,11.5,12.15,23.38,23.91,35.18,35.75a18.29,18.29,0,0,0,13.43,5.91c3,0,6-.17,9-.16,18.78.05,37.55,0,56.33,0,4.28,0,8.57-.07,12.85,0a6.47,6.47,0,0,0,5.69-2.54,10.8,10.8,0,0,1,1.1-1.14c8.92-8.58,18.08-16.91,26.48-26,.77-.83,2.28-1.66,1.8-2.74s-2.11-.66-3.26-.66q-14.08-.05-28.16,0c-5.69,0-11.38,0-17.07.08-13.84.29-27.68.63-41.52-.08A46.52,46.52,0,0,1,280,176.58q-11.69-12-23.72-23.57c-7.62-7.38-15.48-14.56-22.54-22.49-3.38-3.79-7.34-5.15-12.31-5.13q-38.2.18-76.4,0a12.5,12.5,0,0,0-9.69,3.94c-.29.29-.58.58-.88.86-8.47,8.28-16.24,17.26-25.15,25.11-.58.51-1.57,1.07-1.21,2s1.55.6,2.37.6q21.92,0,43.83,0C168.53,157.85,182.79,157.78,197,157.88Z"/></svg>