<?xml version="1.0" encoding="utf-8"?>
<!-- Generator: Adobe Illustrator 21.1.0, SVG Export Plug-In . SVG Version: 6.00 Build 0)  -->
<svg version="1.1" id="Laag_1" xmlns="http://www.w3.org/2000/svg" xmlns:xlink="http://www.w3.org/1999/xlink" x="0px" y="0px"
	 viewBox="0 0 595.3 841.9" style="enable-background:new 0 0 595.3 841.9;" xml:space="preserve">
<style type="text/css">
	.st0{filter:url(#AI_GaussiaansVervagen_7);}
	.st1{fill:none;stroke:#242856;stroke-width:4;stroke-miterlimit:10;}
</style>
<filter  id="AI_GaussiaansVervagen_7">
	<feGaussianBlur  stdDeviation="7"></feGaussianBlur>
</filter>
<g class="st0">
	<g>
		<path class="st1" d="M467.1,252.6c0.1,0,0.3,0.1,0.3,0.3s-0.7,1.1-1.6,1.7c0,0,0,0-0.6,0.6c-22.6,22.8-63.8,64.3-63.8,64.3
			c-2.2,2.2-6.5,4-9.7,4H312c-3.1,0-7.8-1.3-10.5-3c0,0-13.3-8.2-18.3-12.4c-11.9-10.1-25.6-25.8-34.3-35c-0.2-0.2-0.3-0.3-0.3-0.3
			c-3.7-3.9-7.8-5.5-13.2-5.5c-22.5,0.2-44.9,0.1-67.4,0.1c-1.6,0-3.2-0.5-5.1,0.7c18.6,18.6,51.4,51.4,51.4,51.4
			c2.2,2.2,1.5,4-1.7,4H184c-3.1,0-7.5-1.8-9.6-4.1l-23.5-23.8c-2.2-2.2-5.8-5.8-8-8c0,0-21.7-21.4-34.5-34.1c0-0.3,0-0.7,0-1
			c9.7-8.2,23.5-22.4,23.5-22.4c2.2-2.2,5.8-5.8,8-8l34.5-34.5c2.2-2.2,6.5-4,9.7-4c0,0,53.7,0,83.3,0c13.1,2.9,26.9,17.1,26.9,17.1
			c2.2,2.2,5.8,5.9,8,8.1l21.2,21.4c2.2,2.2,6.1,5.5,8.6,7.3c0,0,3.2,2.3,8.6,2.3c22.5-0.2,45-0.1,67.5-0.1c1.3,0,3,0.8,4.6-1.3
			c-18.5-18.2-36.9-36.5-55.4-54.7c13.7,0,27.3,0,41,0c0.3,0.5,0.7,0.9,1,1.4c0.3,0.4,0.3,0.4,0.3,0.4c0.3,0.5,2.3,2.7,4.5,4.9
			l57,56.7c2.2,2.2,4.1,4.3,4.2,4.7C465.5,252,466.9,252.6,467.1,252.6z M166.1,233.7c-2.3,2.1-4,4.2-3.7,4.5
			c0.2,0.4,2.3,1.4,4.1,1.4c0,0,0,0,1.6,0c22.5,0,45,0.1,67.5,0c12.3-0.1,22.6,4,31.3,12.9c12.5,12.8,25.3,25.2,37.7,37.9
			c3.3,3.3,6.9,4.9,11.5,4.9c22-0.1,44-0.1,66,0c2.6,0,4.3-1,6-2.7c7.3-7.4,14.6-14.6,21.9-21.9c0.8-0.8,2.4-1.3,1.9-3.1
			c-33.5,1.1-59.2,0.8-72,0c-4.6-0.3-11-0.9-18.2-4.2c-6-2.8-10.6-6.6-13.1-8.7c-3.7-3.1-5.9-5.6-5.9-5.6c-2.1-2.3-5.6-6-7.8-8.2
			c0,0-15.2-15.1-24.8-24.7c-2.9-2.9-6.1-4.9-10.5-4.8c-22.2,0.1-44.3,0.1-66.5,0c-2.1,0-3.7,0.5-5.3,2
			C179.3,221.4,166.1,233.7,166.1,233.7z"/>
	</g>
</g>
<g>
	<g>
		<g>
			<path class="st1" d="M471.4,249.3c0.1,0,0.3,0.1,0.3,0.3s-0.7,1.1-1.6,1.7c0,0,0,0-0.6,0.6c-22.6,22.8-63.8,64.3-63.8,64.3
				c-2.2,2.2-6.5,4-9.7,4h-79.7c-3.1,0-7.8-1.3-10.5-3c0,0-13.3-8.2-18.3-12.4c-11.9-10.1-25.6-25.8-34.3-35
				c-0.2-0.2-0.3-0.3-0.3-0.3c-3.7-3.9-7.8-5.5-13.2-5.5c-22.5,0.2-44.9,0.1-67.4,0.1c-1.6,0-3.2-0.5-5.1,0.7
				c18.6,18.6,51.4,51.4,51.4,51.4c2.2,2.2,1.5,4-1.7,4h-28.7c-3.1,0-7.5-1.8-9.6-4.1l-23.5-23.8c-2.2-2.2-5.8-5.8-8-8
				c0,0-21.7-21.4-34.5-34.1c0-0.3,0-0.7,0-1c9.7-8.2,23.5-22.4,23.5-22.4c2.2-2.2,5.8-5.8,8-8l34.5-34.5c2.2-2.2,6.5-4,9.7-4
				c0,0,53.7,0,83.3,0c13.1,2.9,26.9,17.1,26.9,17.1c2.2,2.2,5.8,5.9,8,8.1l21.2,21.4c2.2,2.2,6.1,5.5,8.6,7.3c0,0,3.2,2.3,8.6,2.3
				c22.5-0.2,45-0.1,67.5-0.1c1.3,0,3,0.8,4.6-1.3c-18.5-18.2-36.9-36.5-55.4-54.7c13.7,0,27.3,0,41,0c0.3,0.5,0.7,0.9,1,1.4
				c0.3,0.4,0.3,0.4,0.3,0.4c0.3,0.5,2.3,2.7,4.5,4.9l57,56.7c2.2,2.2,4.1,4.3,4.2,4.7C469.8,248.7,471.2,249.3,471.4,249.3z
				 M170.4,230.4c-2.3,2.1-4,4.2-3.7,4.5c0.2,0.4,2.3,1.4,4.1,1.4c0,0,0,0,1.6,0c22.5,0,45,0.1,67.5,0c12.3-0.1,22.6,4,31.3,12.9
				c12.5,12.8,25.3,25.2,37.7,37.9c3.3,3.3,6.9,4.9,11.5,4.9c22-0.1,44-0.1,66,0c2.6,0,4.3-1,6-2.7c7.3-7.4,14.6-14.6,21.9-21.9
				c0.8-0.8,2.4-1.3,1.9-3.1c-33.5,1.1-59.2,0.8-72,0c-4.6-0.3-11-0.9-18.2-4.2c-6-2.8-10.6-6.6-13.1-8.7c-3.7-3.1-5.9-5.6-5.9-5.6
				c-2.1-2.3-5.6-6-7.8-8.2c0,0-15.2-15.1-24.8-24.7c-2.9-2.9-6.1-4.9-10.5-4.8c-22.2,0.1-44.3,0.1-66.5,0c-2.1,0-3.7,0.5-5.3,2
				C183.6,218.1,170.4,230.4,170.4,230.4z"/>
		</g>
	</g>
</g>
</svg>
