<?xml version="1.0" encoding="utf-8"?>
<!-- Generator: Adobe Illustrator 21.1.0, SVG Export Plug-In . SVG Version: 6.00 Build 0)  -->
<svg version="1.1" id="Laag_1" xmlns="http://www.w3.org/2000/svg" xmlns:xlink="http://www.w3.org/1999/xlink" x="0px" y="0px"
	 viewBox="0 0 200 200" style="enable-background:new 0 0 200 200;" xml:space="preserve">
<style type="text/css">
	.st0{fill:#29235C;}
</style>
<path class="st0" d="M100,176.7c-42.3,0-76.7-34.4-76.7-76.7S57.7,23.3,100,23.3s76.7,34.4,76.7,76.7S142.3,176.7,100,176.7z
	 M100,28.5c-39.4,0-71.5,32.1-71.5,71.5s32.1,71.5,71.5,71.5s71.5-32.1,71.5-71.5S139.4,28.5,100,28.5z"/>
<path class="st0" d="M83.3,147.8c-11.4,0-22.8-3-31.6-8.8l-3.3-2.2l3.9-0.6c1.4-0.2,2.9-0.4,4.4-0.6c3.4-0.4,7-0.9,10.4-1.6
	c3.6-0.8,7.2-2.4,10.8-4.8c-9.4-2.7-15.9-8.5-16.6-15.1l-0.2-1.7h3.3c-6.7-4.2-10.3-10.6-10.9-19.1l-0.2-2.1l6.1,1.7
	c-2.7-3-4.3-6.3-5.1-10C53.3,77.2,54,72,56.8,67l1-1.9l1.4,1.7c10.8,12.6,23.9,19.5,40,21c-0.5-5.1,0.2-9.4,2.2-13.2
	c3.2-6.3,9-10.6,15.9-11.8c6.8-1.2,13.7,0.7,18.8,5.3c0.8,0.7,1.2,0.7,1.9,0.5c2.6-0.9,5.1-1.9,7.7-2.8l6-2.2l-0.9,2.9
	c-1,3.1-2.7,5.6-4.5,7.8l9.7-2.4l-2.9,3.5c-3.3,3.9-5.7,6.6-7.6,8c-0.4,0.3-1.1,0.9-1.5,1.8c-0.3,0.6-0.4,1.4-0.4,2.4
	c0.1,24.9-16.3,48.2-39.8,56.7C97.4,146.6,90.4,147.8,83.3,147.8z M57.1,138.7c13.2,6.9,31,8.1,45.8,2.8c22.3-8,37.8-30.2,37.8-53.8
	c0-1.5,0.2-2.7,0.7-3.7c0.8-1.6,1.9-2.5,2.3-2.9c1.1-0.9,2.5-2.2,4.1-4.1l-12,2.9l4.6-4c2.9-2.6,4.9-4.9,6.2-7.2
	c-2.6,0.9-5.1,1.9-7.6,2.8c-1.8,0.7-3.4,0.3-4.9-1.1c-4.4-4-10.3-5.7-16.2-4.6c-6,1.1-11,4.8-13.8,10.2c-1.9,3.8-2.5,8-1.7,13.3
	l0.3,1.8l-1.9-0.1C84,89.8,69.7,82.9,58.4,70.5c-1.6,3.8-2,7.7-1.1,11.9c0.9,4.5,3.4,8.3,7.6,11.6l1,0.8l-1.6,2.6l-7.6-2.1
	c1.2,8.3,6,14,14.6,17.3l7.6,2.9H64.8c1.6,5.3,8.3,9.9,17.1,11.6l3.2,0.6l-2.6,2c-4.9,3.9-9.7,6.3-14.7,7.3
	C64.2,137.8,60.6,138.2,57.1,138.7L57.1,138.7z"/>
</svg>
