<?xml version="1.0" encoding="utf-8"?>
<!-- Generator: Adobe Illustrator 21.1.0, SVG Export Plug-In . SVG Version: 6.00 Build 0)  -->
<svg version="1.1" id="Laag_1" xmlns="http://www.w3.org/2000/svg" xmlns:xlink="http://www.w3.org/1999/xlink" x="0px" y="0px"
	 viewBox="0 0 200 200" style="enable-background:new 0 0 200 200;" xml:space="preserve">
<style type="text/css">
	.st0{fill:#233971;}
</style>
<g>
	<path class="st0" d="M82.9,138.3c-32.7,0-59.3-26.6-59.3-59.3s26.6-59.3,59.3-59.3c32.7,0,59.3,26.6,59.3,59.3
		S115.7,138.3,82.9,138.3z M82.9,28.2c-28,0-50.7,22.8-50.7,50.7s22.8,50.7,50.7,50.7c28,0,50.7-22.8,50.7-50.7
		S110.9,28.2,82.9,28.2z"/>
	<path class="st0" d="M162.8,174.8c-15.8-15.8-31.5-31.5-47.3-47.3c4.1-4.1,8.1-8.1,12.2-12.2c16.2,16.2,32.5,32.5,48.7,48.7
		c-0.1,3.8-0.1,7.5-0.2,11.3C171.8,175.1,167.3,175,162.8,174.8z"/>
</g>
</svg>
